<mxfile host="app.diagrams.net" modified="2023-12-11T08:16:43.272Z" agent="Mozilla/5.0 (Windows NT 10.0; Win64; x64) AppleWebKit/537.36 (KHTML, like Gecko) Chrome/119.0.0.0 Safari/537.36" etag="Yvo9Ux1COtcGk1TuWvRu" version="22.1.7" type="github">
  <diagram name="Sida-1" id="GtjRdyTVKEJbW-mownYv">
    <mxGraphModel dx="521" dy="605" grid="1" gridSize="10" guides="1" tooltips="1" connect="1" arrows="1" fold="1" page="1" pageScale="1" pageWidth="827" pageHeight="1169" math="0" shadow="0">
      <root>
        <mxCell id="0" />
        <mxCell id="1" parent="0" />
        <mxCell id="9mXjwKRkxwL5jyTUC2LN-1" value="Start" style="ellipse;whiteSpace=wrap;html=1;" vertex="1" parent="1">
          <mxGeometry x="390" y="230" width="120" height="80" as="geometry" />
        </mxCell>
        <mxCell id="9mXjwKRkxwL5jyTUC2LN-2" value="Läs in tal" style="rounded=0;whiteSpace=wrap;html=1;" vertex="1" parent="1">
          <mxGeometry x="390" y="380" width="120" height="60" as="geometry" />
        </mxCell>
        <mxCell id="9mXjwKRkxwL5jyTUC2LN-11" value="" style="edgeStyle=orthogonalEdgeStyle;rounded=0;orthogonalLoop=1;jettySize=auto;html=1;" edge="1" parent="1" source="9mXjwKRkxwL5jyTUC2LN-4">
          <mxGeometry relative="1" as="geometry">
            <mxPoint x="340" y="545" as="targetPoint" />
          </mxGeometry>
        </mxCell>
        <mxCell id="9mXjwKRkxwL5jyTUC2LN-4" value="Tal positivt?" style="rhombus;whiteSpace=wrap;html=1;" vertex="1" parent="1">
          <mxGeometry x="395" y="490" width="110" height="110" as="geometry" />
        </mxCell>
        <mxCell id="9mXjwKRkxwL5jyTUC2LN-14" value="" style="edgeStyle=orthogonalEdgeStyle;rounded=0;orthogonalLoop=1;jettySize=auto;html=1;exitX=0.555;exitY=0.96;exitDx=0;exitDy=0;exitPerimeter=0;entryX=0.5;entryY=0;entryDx=0;entryDy=0;" edge="1" parent="1" source="9mXjwKRkxwL5jyTUC2LN-13" target="9mXjwKRkxwL5jyTUC2LN-5">
          <mxGeometry relative="1" as="geometry">
            <mxPoint x="250" y="600" as="targetPoint" />
            <Array as="points">
              <mxPoint x="320" y="559" />
            </Array>
          </mxGeometry>
        </mxCell>
        <mxCell id="9mXjwKRkxwL5jyTUC2LN-16" value="" style="edgeStyle=orthogonalEdgeStyle;rounded=0;orthogonalLoop=1;jettySize=auto;html=1;" edge="1" parent="1" source="9mXjwKRkxwL5jyTUC2LN-5" target="9mXjwKRkxwL5jyTUC2LN-7">
          <mxGeometry relative="1" as="geometry">
            <mxPoint x="320" y="820" as="targetPoint" />
          </mxGeometry>
        </mxCell>
        <mxCell id="9mXjwKRkxwL5jyTUC2LN-5" value="Skriv ut &quot;Talet är positivt&quot;" style="whiteSpace=wrap;html=1;aspect=fixed;" vertex="1" parent="1">
          <mxGeometry x="280" y="620" width="80" height="80" as="geometry" />
        </mxCell>
        <mxCell id="9mXjwKRkxwL5jyTUC2LN-18" value="" style="edgeStyle=orthogonalEdgeStyle;rounded=0;orthogonalLoop=1;jettySize=auto;html=1;exitX=0.383;exitY=1.067;exitDx=0;exitDy=0;exitPerimeter=0;entryX=0.5;entryY=0;entryDx=0;entryDy=0;" edge="1" parent="1" source="9mXjwKRkxwL5jyTUC2LN-12" target="9mXjwKRkxwL5jyTUC2LN-6">
          <mxGeometry relative="1" as="geometry">
            <mxPoint x="670" y="590" as="targetPoint" />
            <Array as="points">
              <mxPoint x="601" y="570" />
            </Array>
          </mxGeometry>
        </mxCell>
        <mxCell id="9mXjwKRkxwL5jyTUC2LN-20" value="" style="edgeStyle=orthogonalEdgeStyle;rounded=0;orthogonalLoop=1;jettySize=auto;html=1;entryX=0.5;entryY=0;entryDx=0;entryDy=0;" edge="1" parent="1" source="9mXjwKRkxwL5jyTUC2LN-6" target="9mXjwKRkxwL5jyTUC2LN-7">
          <mxGeometry relative="1" as="geometry">
            <mxPoint x="440" y="660" as="targetPoint" />
          </mxGeometry>
        </mxCell>
        <mxCell id="9mXjwKRkxwL5jyTUC2LN-6" value="Skriv ut &quot;talet är negativt&quot;" style="whiteSpace=wrap;html=1;aspect=fixed;" vertex="1" parent="1">
          <mxGeometry x="560" y="620" width="80" height="80" as="geometry" />
        </mxCell>
        <mxCell id="9mXjwKRkxwL5jyTUC2LN-7" value="Slut" style="ellipse;whiteSpace=wrap;html=1;" vertex="1" parent="1">
          <mxGeometry x="395" y="750" width="120" height="80" as="geometry" />
        </mxCell>
        <mxCell id="9mXjwKRkxwL5jyTUC2LN-9" value="" style="shape=flexArrow;endArrow=classic;html=1;rounded=0;" edge="1" parent="1">
          <mxGeometry width="50" height="50" relative="1" as="geometry">
            <mxPoint x="449.5" y="440" as="sourcePoint" />
            <mxPoint x="450" y="490" as="targetPoint" />
          </mxGeometry>
        </mxCell>
        <mxCell id="9mXjwKRkxwL5jyTUC2LN-17" value="" style="edgeStyle=orthogonalEdgeStyle;rounded=0;orthogonalLoop=1;jettySize=auto;html=1;exitX=1;exitY=0.5;exitDx=0;exitDy=0;entryX=0;entryY=0.5;entryDx=0;entryDy=0;" edge="1" parent="1" target="9mXjwKRkxwL5jyTUC2LN-12">
          <mxGeometry relative="1" as="geometry">
            <mxPoint x="500" y="544.25" as="sourcePoint" />
            <mxPoint x="595" y="545.25" as="targetPoint" />
          </mxGeometry>
        </mxCell>
        <mxCell id="9mXjwKRkxwL5jyTUC2LN-12" value="False" style="text;strokeColor=none;fillColor=none;align=left;verticalAlign=middle;spacingLeft=4;spacingRight=4;overflow=hidden;points=[[0,0.5],[1,0.5]];portConstraint=eastwest;rotatable=0;whiteSpace=wrap;html=1;" vertex="1" parent="1">
          <mxGeometry x="570" y="530" width="80" height="30" as="geometry" />
        </mxCell>
        <mxCell id="9mXjwKRkxwL5jyTUC2LN-13" value="True" style="text;strokeColor=none;fillColor=none;align=left;verticalAlign=middle;spacingLeft=4;spacingRight=4;overflow=hidden;points=[[0,0.5],[1,0.5]];portConstraint=eastwest;rotatable=0;whiteSpace=wrap;html=1;" vertex="1" parent="1">
          <mxGeometry x="300" y="530" width="40" height="30" as="geometry" />
        </mxCell>
      </root>
    </mxGraphModel>
  </diagram>
</mxfile>
